<svg width="32" height="32" viewBox="0 0 32 32" xmlns="http://www.w3.org/2000/svg">
    <g fill="none" fill-rule="evenodd">
        <circle fill="#5E47DC" opacity=".2" cx="16" cy="16" r="16"/>
        <path d="M5.333 5.333h21.333v21.333H5.333z"/>
        <path fill="#5E40E0" d="m13.425 24.962.013.012.009-.01z"/>
        <path d="M22.46 10.893c.164 0 .3.118.329.273l.005.06v3.76c.444.02.875.216 1.184.568l.075.092 1.815 2.383a.333.333 0 0 1 .063.147l.005.055v3.49a4.776 4.776 0 0 1-4.616 4.773l-.16.003h-.637a4.14 4.14 0 0 1-4.127-3.808h-1.2a.333.333 0 0 1-.328-.273l-.005-.06v-.65a.333.333 0 0 1 .661-.06l.005.06v.317h2.329V12.63c0-.164.118-.3.273-.328l.06-.005c.164 0 .3.118.328.273l.005.06v9.725c0 .164-.117.3-.273.328l-.06.006h-1.125a3.474 3.474 0 0 0 3.31 3.137l.147.003h.636a4.11 4.11 0 0 0 4.107-3.96l.003-.15v-3.377l-1.746-2.294a1.01 1.01 0 0 0-1.265-.287l-.085.049a.888.888 0 0 0-.313 1.148l.052.09 1.044 1.574h.969c.164 0 .3.118.328.274l.005.06c0 .164-.118.3-.273.328l-.06.005h-1.131v3.066c0 .164-.118.3-.273.328l-.06.006h-2.758a.333.333 0 0 1-.06-.662l.06-.005h2.424v-3.32c0-.034.005-.066.015-.097l-.798-1.208a1.555 1.555 0 0 1 .469-2.148c.1-.065.206-.117.314-.158v-3.533H15.53v.423c0 .164-.117.3-.273.328l-.06.005a.333.333 0 0 1-.328-.273l-.005-.06v-.756c0-.164.118-.3.273-.328l.06-.005h7.265z" fill="#5E47DC" fill-rule="nonzero"/>
        <path d="M19.294 13.993v-.87c0-.27.221-.492.492-.492h.87c.27 0 .492.221.492.491v.871c0 .269-.22.491-.491.491h-.871a.493.493 0 0 1-.492-.49" fill-opacity=".6" fill="#5E47DC"/>
        <path d="M15.196 12.409a.746.746 0 0 0 0 1.488.746.746 0 0 0 0-1.488m0 2.265c-.839 0-1.52-.682-1.52-1.52 0-.837.682-1.52 1.52-1.52.84 0 1.52.683 1.52 1.52 0 .838-.68 1.52-1.52 1.52" fill="#5E47DC"/>
        <path d="M14.952 15.143a.77.77 0 0 0 0 1.538.77.77 0 0 0 0-1.538m0 2.314a1.546 1.546 0 0 1-1.545-1.544 1.546 1.546 0 0 1 3.09 0c0 .852-.693 1.544-1.545 1.544" fill="#5E47DC"/>
        <path d="M14.952 17.571a1.132 1.132 0 1 1 0 2.265 1.132 1.132 0 0 1 0-2.265" stroke="#5E47DC"/>
        <path d="M15.196 20.211a.496.496 0 0 0 0 .99.496.496 0 0 0 0-.99m0 1.766c-.7 0-1.27-.57-1.27-1.27 0-.701.57-1.271 1.27-1.271.7 0 1.27.57 1.27 1.27 0 .7-.57 1.27-1.27 1.27" fill="#5E47DC"/>
        <path d="m16.95 11.14-4.638-5.023a1 1 0 0 0-1.459-.011l-4.8 5.041a1 1 0 0 0-.275.69v5.394a1 1 0 0 0 1 1h7.147l.776-.774L13.676 16l1.187-1.516-.938-1.6 1.271-1.102v-.642h1.754z" fill-opacity=".6" fill="#5E47DC"/>
    </g>
</svg>
