<svg width="32" height="32" viewBox="0 0 32 32" xmlns="http://www.w3.org/2000/svg">
    <g fill="#A8A93D" fill-rule="evenodd">
        <circle opacity=".2" cx="16" cy="16" r="16"/>
        <path fill-opacity=".6" d="M14.933 8.933h9.613v9.533h-9.613z"/>
        <g fill-rule="nonzero">
            <path d="M9.922 24.318c.256 0 .468.16.497.367l.003.048v1.195c0 .229-.224.414-.5.414-.256 0-.468-.16-.497-.366l-.003-.048v-1.195c0-.23.224-.415.5-.415zM18.542 24.318c.256 0 .467.16.496.367l.004.048v1.105c0 .229-.224.414-.5.414-.257 0-.468-.16-.497-.366l-.003-.048v-1.105c0-.23.224-.415.5-.415zM13.761 24.318c.257 0 .468.16.497.367l.003.048v1.105c0 .229-.223.414-.5.414-.256 0-.467-.16-.496-.366l-.004-.048v-1.105c0-.23.224-.415.5-.415zM12.229 20.125c1.054 0 2.002.637 2.392 1.609a.413.413 0 0 1-.234.538.42.42 0 0 1-.543-.232 1.738 1.738 0 0 0-1.527-1.084l-.088-.002h-1.744a.416.416 0 0 1-.418-.415c0-.212.162-.387.37-.411l.048-.003h1.744z"/>
            <path d="M10.705 15.566c.017 0 .033 0 .05.002l.042.008.018-.002.09-.006.091-.002c1.358 0 2.583.793 3.133 2.015l.047.109 1.64 4.014h2.4c.93 0 1.69.725 1.735 1.636l.002.086c0 .922-.73 1.674-1.65 1.72l-.086.001h-7.75a2.086 2.086 0 0 1-2.034-1.595l-.02-.091-.85-4.454a2.903 2.903 0 0 1 2.737-3.438l.137-.003h.268zm-1.571 1.28-.026.021a2.064 2.064 0 0 0-.74 1.885l.016.1.85 4.454a1.25 1.25 0 0 0 1.158 1.01l.075.002h7.75c.497 0 .9-.4.9-.892a.896.896 0 0 0-.836-.89l-.064-.003H11.87c-.92 0-1.727-.595-1.997-1.46l-.026-.09-.774-2.95a1.955 1.955 0 0 1 .023-1.076l.037-.11zm1.968-.45-.106-.001a1.146 1.146 0 0 0-1.134 1.334l.02.095.775 2.95c.138.524.6.896 1.14.928l.074.002h3.042L13.401 18a2.593 2.593 0 0 0-2.195-1.598l-.104-.006z"/>
            <path d="M16.072 20.125c1.078 0 2.058.618 2.515 1.586a.413.413 0 0 1-.202.552.42.42 0 0 1-.556-.2 1.94 1.94 0 0 0-1.663-1.107l-.094-.002h-1.071a.416.416 0 0 1-.418-.415c0-.212.161-.387.369-.411l.049-.003h1.071z"/>
        </g>
        <g fill-rule="nonzero">
            <path d="M13.806 5.333c-.256 0-.467.16-.496.366l-.004.049v3.86c0 .23.224.415.5.415.257 0 .468-.16.497-.366l.003-.049v-3.86c0-.23-.224-.415-.5-.415z"/>
            <path d="M13.967 9.348a1.38 1.38 0 0 0-1.382 1.295l-.002.078v1.82c0 .213.161.388.37.412l.048.003h.966c.231 0 .418-.186.418-.414a.416.416 0 0 0-.37-.412l-.048-.003h-.548V10.72c0-.282.216-.513.492-.541l.056-.003c.284 0 .517.214.545.488l.003.056v1.82c0 .23.187.415.418.415.215 0 .391-.16.415-.366l.003-.048V10.72c0-.758-.62-1.373-1.384-1.373zM17.568 5.333c-.256 0-.468.16-.497.366l-.003.049v.959c0 .229.224.414.5.414.256 0 .468-.16.497-.366l.003-.048v-.96c0-.228-.224-.414-.5-.414z"/>
            <path d="M17.729 6.447a1.38 1.38 0 0 0-1.382 1.294l-.002.078V9.64c0 .213.161.388.37.412l.048.003h.966c.23 0 .418-.186.418-.415a.416.416 0 0 0-.37-.412l-.048-.002h-.548V7.818c0-.281.215-.513.492-.54l.056-.003c.284 0 .517.214.545.488l.003.055V9.64c0 .229.187.415.418.415.214 0 .391-.16.415-.367l.003-.048V7.82c0-.759-.62-1.373-1.384-1.373z"/>
            <g>
                <path d="M10.045 5.333c-.257 0-.468.16-.497.366l-.003.049v2.617c0 .229.223.414.5.414.256 0 .467-.16.496-.366l.004-.048V5.748c0-.23-.224-.415-.5-.415z"/>
                <path d="M10.205 8.105a1.38 1.38 0 0 0-1.381 1.294l-.003.078v1.821c0 .213.162.388.37.412l.048.003h.966c.231 0 .418-.186.418-.415a.416.416 0 0 0-.369-.412l-.049-.002h-.547V9.476c0-.281.215-.513.491-.54l.056-.003c.284 0 .518.214.546.488l.003.055v1.821c0 .229.187.415.418.415.214 0 .39-.16.415-.367l.003-.048v-1.82c0-.759-.62-1.373-1.385-1.373z"/>
            </g>
        </g>
        <path d="M26.218 26.667c.231 0 .418-.186.418-.415a.416.416 0 0 0-.369-.412l-.049-.002H6.138L6.14 6.032a.416.416 0 0 0-.37-.412l-.048-.002a.417.417 0 0 0-.415.366l-.003.048v20.22c0 .213.161.388.37.412l.048.003h20.497z" fill-rule="nonzero"/>
    </g>
</svg>
