<svg width="50" height="50" viewBox="0 0 50 50" fill="none" xmlns="http://www.w3.org/2000/svg">
<circle cx="24.9839" cy="24.9839" r="24.9839" fill="#FFFAE9"/>
<circle opacity="0.6" cx="31.8279" cy="17.4501" r="9.77716" fill="#ECDA93"/>
<path d="M31.2701 14.006L31.3705 14.0114C32.6569 14.1968 33.3408 15.1036 33.3408 16.5422C33.3408 17.7541 32.2898 18.5846 31.1882 18.833L31.1397 18.8415L33.1751 20.8534C33.3941 21.0696 33.3963 21.4224 33.1801 21.6414C32.9638 21.8604 32.611 21.8626 32.392 21.6463L29.0229 18.3114L28.9914 18.2703L28.9575 18.1684L28.8831 17.9293L29.7654 17.4895L29.8135 17.5282L29.9216 17.6321C30.4187 18.1166 32.2263 17.5465 32.2263 16.5422C32.2263 15.6285 31.9152 15.2159 31.2116 15.1145C30.9069 15.0706 30.6956 14.7881 30.7395 14.4835C30.7785 14.2128 31.006 14.0157 31.2701 14.006Z" fill="#E0C24B"/>
<path d="M34.4554 14.0054C34.7632 14.0054 35.0127 14.2549 35.0127 14.5627C35.0127 14.8362 34.8156 15.0638 34.5556 15.1109L34.4554 15.1199L29.4403 15.1199C29.1325 15.1199 28.8831 14.8704 28.8831 14.5627C28.8831 14.2891 29.0802 14.0616 29.3401 14.0144L29.4403 14.0054L34.4554 14.0054Z" fill="#E0C24B"/>
<path d="M34.4554 15.6776C34.7632 15.6776 35.0127 15.927 35.0127 16.2348C35.0127 16.5084 34.8156 16.7359 34.5556 16.7831L34.4554 16.792L29.4403 16.792C29.1325 16.792 28.8831 16.5425 28.8831 16.2348C28.8831 15.9612 29.0802 15.7337 29.3401 15.6865L29.4403 15.6776L34.4554 15.6776Z" fill="#E0C24B"/>
<path fill-rule="evenodd" clip-rule="evenodd" d="M15.6533 19.8208C15.9685 19.8208 16.229 20.055 16.2703 20.359L16.2759 20.4435V22.2348H25.0149C25.16 22.2348 25.2996 22.2854 25.4103 22.3764L25.4731 22.4358L33.0902 30.7135C33.6064 31.2289 33.8321 31.9342 33.7674 32.6158H39.8455C41.2294 32.6158 42.2276 33.7115 42.2276 35.0088C42.2276 36.2126 41.3499 37.317 40.2629 37.3935L40.1366 37.3977L24.6704 39.1721C24.4449 39.1721 24.3057 39.1658 24.1276 39.1359C23.8641 39.0917 23.6327 39.0056 23.4766 38.882L23.4051 38.8171L16.2759 33.1947V35.5317C16.2759 35.8469 16.0417 36.1074 15.7378 36.1486L15.6533 36.1543H9.61801C9.27413 36.1543 8.99536 35.8755 8.99536 35.5317C8.99536 35.2164 9.22961 34.9559 9.53352 34.9147L9.61801 34.909L15.0301 34.9089V21.0661H9.61801C9.30279 21.0661 9.04228 20.8319 9.00105 20.5279L8.99536 20.4435C8.99536 20.1282 9.22961 19.8677 9.53352 19.8265L9.61801 19.8208H15.6533ZM16.2759 31.6089L24.2323 37.8893L24.3335 37.9077L24.467 37.9234L24.5993 37.9309L40.0655 36.1565C40.536 36.1565 40.9823 35.6175 40.9823 35.0088C40.9823 34.412 40.5678 33.9219 39.9614 33.8663L39.8455 33.8611H33.269C33.2468 33.8891 33.2238 33.9166 33.2001 33.9438L33.1151 34.0345L33.0473 34.1196C32.1774 35.1247 30.5829 35.2169 29.6494 34.4104L29.5406 34.3093L25.2738 30.4973C25.0174 30.2682 24.9952 29.8746 25.2243 29.6181C25.4326 29.385 25.7768 29.3455 26.0304 29.5124L26.1035 29.5686L30.3954 33.4043C30.8137 33.822 31.634 33.8025 32.0745 33.3389L32.2103 33.1801C32.6118 32.7793 32.6385 32.1197 32.2758 31.669L32.1921 31.5758L24.7417 23.4794L16.2759 23.4801V31.6089Z" fill="#E0C24B"/>
</svg>
