<svg width="32" height="32" viewBox="0 0 32 32" xmlns="http://www.w3.org/2000/svg">
    <g fill="none" fill-rule="evenodd">
        <circle fill="#DCA38C" opacity=".2" cx="16" cy="16" r="16"/>
        <path d="M5.333 5.333h21.333v21.333H5.333z"/>
        <g fill="#DCA38C">
            <path d="M26.232 23.915h-.994a.39.39 0 1 1 0-.78h.604v-3.289l-3.802-3.088v3.77a.39.39 0 1 1-.78 0v-4.59a.392.392 0 0 1 .636-.303l4.582 3.722a.39.39 0 0 1 .145.303v3.865a.39.39 0 0 1-.39.39M18.748 23.915h-5.47a.39.39 0 1 1 0-.78h5.47a.39.39 0 1 1 0 .78M6.917 23.915H5.751a.39.39 0 0 1-.39-.39v-9.59a.39.39 0 0 1 .39-.39H19.93a.39.39 0 0 1 .39.39v6.78a.39.39 0 0 1-.39.39H8.186a.39.39 0 1 1 0-.78H19.54v-6H6.143v8.811h.776a.39.39 0 1 1-.002.78"/>
            <path fill-opacity=".6" d="M6.683 17.45h11.594V5.86H6.683z"/>
            <path d="M9.985 22.488a1.53 1.53 0 0 0-1.53 1.529 1.53 1.53 0 0 0 3.059 0 1.53 1.53 0 0 0-1.53-1.529m0 3.84a2.312 2.312 0 0 1-2.31-2.31 2.312 2.312 0 0 1 2.31-2.309 2.312 2.312 0 0 1 2.31 2.31 2.312 2.312 0 0 1-2.31 2.308M22.025 22.488a1.53 1.53 0 0 0-1.53 1.529 1.53 1.53 0 0 0 3.059 0 1.53 1.53 0 0 0-1.53-1.529m0 3.84a2.312 2.312 0 0 1-2.31-2.31 2.312 2.312 0 0 1 2.31-2.309 2.312 2.312 0 0 1 2.31 2.31 2.312 2.312 0 0 1-2.31 2.308"/>
        </g>
    </g>
</svg>
