<svg width="32" height="32" viewBox="0 0 32 32" xmlns="http://www.w3.org/2000/svg">
    <g fill="none" fill-rule="evenodd">
        <circle fill="#4FCB9E" opacity=".2" cx="16" cy="16" r="16"/>
        <path d="M5.333 5.179h21.333v21.333H5.333z"/>
        <path fill="#5E40E0" d="m14.636 25.293.012.012.01-.009z"/>
        <path d="M25.712 26.003H15.614a.719.719 0 0 1-.717-.718v-6.027c0-.193.074-.378.214-.512l5.026-4.945a.719.719 0 0 1 1.004-.003l5.076 4.948a.71.71 0 0 1 .214.512v6.022a.72.72 0 0 1-.72.723" fill-opacity=".6" fill="#4FCB9E"/>
        <path fill="#5E40E0" d="m14.705 24.892.014.012.01-.01z"/>
        <path d="M6.177 21.674a.397.397 0 0 1-.4-.4V5.579c0-.221.179-.4.4-.4h11.425c.22 0 .399.179.399.4v9.28a.398.398 0 1 1-.798 0V5.976H6.576v14.897l10.627-.07v-2.307a.398.398 0 1 1 .798 0V21.2c0 .22-.177.397-.396.399l-11.426.076h-.002z" fill="#4FCB9E"/>
        <path d="M15.547 13.64H7.88a.398.398 0 1 1 0-.797h7.667a.398.398 0 1 1 0 .797M9.8 19.993H7.88a.398.398 0 1 1 0-.797H9.8a.398.398 0 1 1 0 .797M8.28 10.88h6.984V7.73H8.279v3.15zm7.383.797H7.88a.398.398 0 0 1-.399-.4V7.332c0-.22.179-.399.4-.399h7.782c.22 0 .399.178.399.399v3.947c0 .22-.178.399-.399.399zM7.747 18.431h1.845v-1.844H7.747zM11.693 15.251H7.88a.398.398 0 1 1 0-.797h3.813a.398.398 0 1 1 0 .797" fill="#4FCB9E"/>
    </g>
</svg>
